<svg xmlns="http://www.w3.org/2000/svg" width="54.854" height="48" viewBox="0 0 54.854 48">
  <path id="Icon_awesome-react" data-name="Icon awesome-react" d="M44.8,17.806q-.868-.289-1.736-.546c.1-.4.182-.793.268-1.189,1.318-6.385.45-11.517-2.475-13.21-2.818-1.618-7.414.064-12.064,4.114-.461.4-.911.814-1.339,1.232-.289-.279-.589-.557-.889-.825C21.7,3.053,16.81,1.232,13.885,2.935c-2.807,1.628-3.643,6.46-2.464,12.5.118.6.246,1.189.4,1.789-.686.193-1.361.407-1.993.632C4.1,19.841,0,22.97,0,26.205c0,3.343,4.371,6.7,10.317,8.732.482.161.964.321,1.457.461-.161.643-.3,1.275-.429,1.928-1.125,5.946-.246,10.66,2.561,12.278,2.893,1.671,7.757-.043,12.492-4.189.375-.332.75-.675,1.125-1.039.471.461.964.9,1.457,1.328,4.585,3.943,9.117,5.539,11.914,3.921,2.893-1.671,3.836-6.739,2.614-12.91q-.145-.707-.321-1.446c.343-.1.675-.2,1.007-.311,6.182-2.046,10.66-5.357,10.66-8.753C54.854,22.959,50.633,19.809,44.8,17.806Zm-14.5-9.1c3.986-3.471,7.7-4.832,9.4-3.857,1.811,1.039,2.507,5.239,1.371,10.757-.075.364-.15.718-.246,1.071a54.847,54.847,0,0,0-7.21-1.136,54.13,54.13,0,0,0-4.564-5.689c.418-.4.825-.771,1.254-1.146Zm-12.4,23.056c.546.932,1.1,1.864,1.693,2.775a48.515,48.515,0,0,1-4.971-.8,50.047,50.047,0,0,1,1.746-4.768c.493.943,1,1.875,1.532,2.8ZM14.667,18.877c1.543-.343,3.182-.621,4.885-.836-.568.889-1.125,1.8-1.65,2.721s-1.039,1.843-1.521,2.786c-.675-1.6-1.243-3.161-1.714-4.671ZM17.6,26.259c.707-1.478,1.478-2.925,2.293-4.35s1.693-2.807,2.614-4.168c1.607-.118,3.246-.182,4.918-.182s3.321.064,4.918.182q1.366,2.025,2.6,4.146t2.325,4.328q-1.077,2.218-2.314,4.371c-.814,1.425-1.682,2.807-2.593,4.178-1.6.118-3.257.171-4.939.171s-3.311-.054-4.885-.15q-1.4-2.041-2.636-4.178c-.825-1.425-1.586-2.871-2.3-4.35Zm19.349,5.485c.546-.943,1.061-1.9,1.564-2.861a49.736,49.736,0,0,1,1.811,4.746,47.058,47.058,0,0,1-5.035.857C35.87,33.587,36.416,32.666,36.952,31.744Zm1.543-8.2c-.5-.943-1.018-1.886-1.553-2.807s-1.071-1.811-1.639-2.7a49.3,49.3,0,0,1,4.918.857A47.415,47.415,0,0,1,38.495,23.548ZM27.449,11.5a47.046,47.046,0,0,1,3.171,3.836c-2.121-.1-4.253-.1-6.375,0C25.3,13.949,26.377,12.663,27.449,11.5ZM15.021,4.928c1.8-1.05,5.8.45,10.007,4.178.268.236.536.493.814.75a54.432,54.432,0,0,0-4.6,5.689,56.476,56.476,0,0,0-7.2,1.114c-.139-.546-.257-1.1-.375-1.661-1.007-5.185-.343-9.1,1.35-10.071ZM12.4,33.169c-.45-.129-.889-.268-1.329-.418a21.851,21.851,0,0,1-6.75-3.343,4.807,4.807,0,0,1-2.014-3.2c0-1.961,3.386-4.468,8.271-6.171.611-.214,1.232-.407,1.853-.589a56.969,56.969,0,0,0,2.625,6.814,58.564,58.564,0,0,0-2.657,6.91Zm12.492,10.5a19.61,19.61,0,0,1-6.043,3.782,4.742,4.742,0,0,1-3.782.139c-1.7-.986-2.411-4.768-1.446-9.857.118-.6.246-1.2.4-1.789a53.6,53.6,0,0,0,7.275,1.05,56.54,56.54,0,0,0,4.628,5.721C25.574,43.047,25.231,43.369,24.888,43.669Zm2.625-2.6c-1.093-1.179-2.186-2.486-3.246-3.889,1.029.043,2.089.064,3.161.064,1.1,0,2.186-.021,3.257-.075a46.2,46.2,0,0,1-3.171,3.9Zm14,3.214a4.761,4.761,0,0,1-1.768,3.353c-1.7.986-5.335-.3-9.257-3.664-.45-.386-.9-.8-1.361-1.232a53,53,0,0,0,4.521-5.743,52.814,52.814,0,0,0,7.307-1.125c.107.439.2.879.289,1.307a19.53,19.53,0,0,1,.268,7.1Zm1.95-11.517c-.3.1-.6.193-.911.279a54.425,54.425,0,0,0-2.732-6.835,54.153,54.153,0,0,0,2.625-6.739c.557.161,1.093.332,1.607.5,4.993,1.714,8.5,4.264,8.5,6.214,0,2.1-3.739,4.81-9.085,6.578ZM27.427,31.155a4.907,4.907,0,1,0-4.907-4.907A4.906,4.906,0,0,0,27.427,31.155Z" transform="translate(0 -2.251)" fill="#fff"/>
</svg>
