<svg xmlns="http://www.w3.org/2000/svg" width="157" height="157" viewBox="0 0 157 157">
  <g id="Group_164" data-name="Group 164" transform="translate(1268 1029) rotate(180)">
    <circle id="Ellipse_1" data-name="Ellipse 1" cx="7" cy="7" r="7" transform="translate(1111 872)" fill="#fff"/>
    <ellipse id="Ellipse_1-2" data-name="Ellipse 1" cx="7.5" cy="7" rx="7.5" ry="7" transform="translate(1139 872)" fill="#111"/>
    <circle id="Ellipse_1-3" data-name="Ellipse 1" cx="7" cy="7" r="7" transform="translate(1168 872)" fill="#111"/>
    <ellipse id="Ellipse_1-4" data-name="Ellipse 1" cx="7.5" cy="7" rx="7.5" ry="7" transform="translate(1196 872)" fill="#111"/>
    <circle id="Ellipse_1-5" data-name="Ellipse 1" cx="7" cy="7" r="7" transform="translate(1225 872)" fill="#111"/>
    <ellipse id="Ellipse_1-6" data-name="Ellipse 1" cx="7.5" cy="7" rx="7.5" ry="7" transform="translate(1253 872)" fill="#111"/>
    <ellipse id="Ellipse_1-7" data-name="Ellipse 1" cx="7" cy="7.5" rx="7" ry="7.5" transform="translate(1111 900)" fill="#111"/>
    <circle id="Ellipse_1-8" data-name="Ellipse 1" cx="7.5" cy="7.5" r="7.5" transform="translate(1139 900)" fill="#fff"/>
    <ellipse id="Ellipse_1-9" data-name="Ellipse 1" cx="7" cy="7.5" rx="7" ry="7.5" transform="translate(1168 900)" fill="#111"/>
    <circle id="Ellipse_1-10" data-name="Ellipse 1" cx="7.5" cy="7.5" r="7.5" transform="translate(1196 900)" fill="#111"/>
    <ellipse id="Ellipse_1-11" data-name="Ellipse 1" cx="7" cy="7.5" rx="7" ry="7.5" transform="translate(1225 900)" fill="#111"/>
    <circle id="Ellipse_1-12" data-name="Ellipse 1" cx="7" cy="7" r="7" transform="translate(1111 929)" fill="#111"/>
    <ellipse id="Ellipse_1-13" data-name="Ellipse 1" cx="7.5" cy="7" rx="7.5" ry="7" transform="translate(1139 929)" fill="#111"/>
    <circle id="Ellipse_1-14" data-name="Ellipse 1" cx="7" cy="7" r="7" transform="translate(1168 929)" fill="#fff"/>
    <ellipse id="Ellipse_1-15" data-name="Ellipse 1" cx="7.5" cy="7" rx="7.5" ry="7" transform="translate(1196 929)" fill="#111"/>
    <ellipse id="Ellipse_1-16" data-name="Ellipse 1" cx="7" cy="7.5" rx="7" ry="7.5" transform="translate(1111 957)" fill="#111"/>
    <circle id="Ellipse_1-17" data-name="Ellipse 1" cx="7.5" cy="7.5" r="7.5" transform="translate(1139 957)" fill="#111"/>
    <ellipse id="Ellipse_1-18" data-name="Ellipse 1" cx="7" cy="7.5" rx="7" ry="7.5" transform="translate(1168 957)" fill="#111"/>
    <circle id="Ellipse_1-19" data-name="Ellipse 1" cx="7" cy="7" r="7" transform="translate(1111 986)" fill="#111"/>
    <ellipse id="Ellipse_1-20" data-name="Ellipse 1" cx="7.5" cy="7" rx="7.5" ry="7" transform="translate(1139 986)" fill="#111"/>
    <ellipse id="Ellipse_1-21" data-name="Ellipse 1" cx="7" cy="7.5" rx="7" ry="7.5" transform="translate(1111 1014)" fill="#111"/>
  </g>
</svg>
