<svg xmlns="http://www.w3.org/2000/svg" width="90" height="90" viewBox="0 0 90 90">
  <g id="Group_165" data-name="Group 165" transform="translate(-1111 -872)">
    <circle id="Ellipse_1" data-name="Ellipse 1" cx="6" cy="6" r="6" transform="translate(1111 872)" fill="#fe4900"/>
    <ellipse id="Ellipse_1-2" data-name="Ellipse 1" cx="7" cy="6" rx="7" ry="6" transform="translate(1125.829 872)"/>
    <circle id="Ellipse_1-3" data-name="Ellipse 1" cx="6" cy="6" r="6" transform="translate(1142.2 872)"/>
    <ellipse id="Ellipse_1-4" data-name="Ellipse 1" cx="6.5" cy="6" rx="6.5" ry="6" transform="translate(1156.952 872)"/>
    <ellipse id="Ellipse_1-5" data-name="Ellipse 1" cx="6.5" cy="6" rx="6.5" ry="6" transform="translate(1172.476 872)"/>
    <ellipse id="Ellipse_1-6" data-name="Ellipse 1" cx="6.5" cy="6" rx="6.5" ry="6" transform="translate(1188 872)"/>
    <ellipse id="Ellipse_1-7" data-name="Ellipse 1" cx="6" cy="7" rx="6" ry="7" transform="translate(1111 886.829)"/>
    <circle id="Ellipse_1-8" data-name="Ellipse 1" cx="7" cy="7" r="7" transform="translate(1125.829 886.829)"/>
    <ellipse id="Ellipse_1-9" data-name="Ellipse 1" cx="6" cy="7" rx="6" ry="7" transform="translate(1142.2 886.829)"/>
    <ellipse id="Ellipse_1-10" data-name="Ellipse 1" cx="6.5" cy="7" rx="6.5" ry="7" transform="translate(1156.952 886.829)"/>
    <ellipse id="Ellipse_1-11" data-name="Ellipse 1" cx="6.5" cy="7" rx="6.5" ry="7" transform="translate(1172.476 886.829)"/>
    <circle id="Ellipse_1-12" data-name="Ellipse 1" cx="6" cy="6" r="6" transform="translate(1111 903.2)"/>
    <ellipse id="Ellipse_1-13" data-name="Ellipse 1" cx="7" cy="6" rx="7" ry="6" transform="translate(1125.829 903.2)"/>
    <circle id="Ellipse_1-14" data-name="Ellipse 1" cx="6" cy="6" r="6" transform="translate(1142.2 903.2)"/>
    <ellipse id="Ellipse_1-15" data-name="Ellipse 1" cx="6.5" cy="6" rx="6.5" ry="6" transform="translate(1156.952 903.2)"/>
    <ellipse id="Ellipse_1-16" data-name="Ellipse 1" cx="6" cy="6.5" rx="6" ry="6.5" transform="translate(1111 917.952)"/>
    <ellipse id="Ellipse_1-17" data-name="Ellipse 1" cx="7" cy="6.5" rx="7" ry="6.5" transform="translate(1125.829 917.952)"/>
    <ellipse id="Ellipse_1-18" data-name="Ellipse 1" cx="6" cy="6.5" rx="6" ry="6.5" transform="translate(1142.2 917.952)"/>
    <ellipse id="Ellipse_1-19" data-name="Ellipse 1" cx="6" cy="6.5" rx="6" ry="6.5" transform="translate(1111 933.476)"/>
    <ellipse id="Ellipse_1-20" data-name="Ellipse 1" cx="7" cy="6.5" rx="7" ry="6.5" transform="translate(1125.829 933.476)"/>
    <ellipse id="Ellipse_1-21" data-name="Ellipse 1" cx="6" cy="6.5" rx="6" ry="6.5" transform="translate(1111 949)"/>
  </g>
</svg>
