<svg id="Icon_awesome-github" data-name="Icon awesome-github" xmlns="http://www.w3.org/2000/svg" width="41.025" height="40" viewBox="0 0 41.025 40">
  <path id="Icon_awesome-github-2" data-name="Icon awesome-github" d="M13.722,32.77c0,.165-.19.3-.43.3-.273.025-.463-.108-.463-.3,0-.165.19-.3.43-.3C13.507,32.448,13.722,32.58,13.722,32.77ZM11.15,32.4c-.058.165.108.356.356.405a.388.388,0,0,0,.513-.165c.05-.165-.108-.356-.356-.43A.425.425,0,0,0,11.15,32.4Zm3.656-.141c-.24.058-.405.215-.38.405.025.165.24.273.488.215s.405-.215.38-.38S15.045,32.233,14.805,32.258ZM20.248.563A19.833,19.833,0,0,0,0,20.744,20.737,20.737,0,0,0,14.02,40.529c1.059.19,1.431-.463,1.431-1,0-.513-.025-3.342-.025-5.078,0,0-5.79,1.241-7.006-2.465,0,0-.943-2.407-2.3-3.027,0,0-1.894-1.3.132-1.274a4.366,4.366,0,0,1,3.193,2.134c1.811,3.193,4.847,2.275,6.03,1.729A4.6,4.6,0,0,1,16.8,28.759c-4.624-.513-9.289-1.183-9.289-9.14a6.269,6.269,0,0,1,1.952-4.872,7.815,7.815,0,0,1,.215-5.616c1.729-.538,5.707,2.233,5.707,2.233a19.54,19.54,0,0,1,10.389,0s3.978-2.779,5.707-2.233a7.811,7.811,0,0,1,.215,5.616,6.429,6.429,0,0,1,2.134,4.872c0,7.982-4.872,8.619-9.5,9.14A4.891,4.891,0,0,1,25.74,32.6c0,2.787-.025,6.236-.025,6.915,0,.538.38,1.191,1.431,1A20.546,20.546,0,0,0,41.025,20.744C41.025,9.272,31.72.563,20.248.563ZM8.04,29.09c-.108.083-.083.273.058.43.132.132.323.19.43.083.108-.083.083-.273-.058-.43C8.337,29.04,8.147,28.982,8.04,29.09Zm-.893-.67c-.058.108.025.24.19.323a.246.246,0,0,0,.356-.058c.058-.108-.025-.24-.19-.323C7.337,28.312,7.2,28.337,7.146,28.42Zm2.68,2.945c-.132.108-.083.356.108.513.19.19.43.215.538.083.108-.108.058-.356-.108-.513C10.182,31.257,9.934,31.232,9.826,31.364Zm-.943-1.216c-.132.083-.132.3,0,.488s.356.273.463.19a.377.377,0,0,0,0-.513C9.231,30.124,9.016,30.041,8.883,30.148Z" transform="translate(0 -0.563)" fill="#fff"/>
</svg>
