<svg xmlns="http://www.w3.org/2000/svg" width="42.557" height="48" viewBox="0 0 42.557 48">
  <path id="Icon_awesome-node-js" data-name="Icon awesome-node-js" d="M21.318,48.285a3.731,3.731,0,0,1-1.848-.5l-5.877-3.477c-.876-.5-.448-.667-.162-.762a11.577,11.577,0,0,0,2.657-1.21.43.43,0,0,1,.438.038l4.515,2.676a.551.551,0,0,0,.543,0L39.177,34.9a.564.564,0,0,0,.267-.476V14.119a.567.567,0,0,0-.276-.486L21.585,3.49a.551.551,0,0,0-.543,0L3.469,13.643a.556.556,0,0,0-.276.486v20.3a.526.526,0,0,0,.276.467l4.82,2.781c2.619,1.3,4.219-.229,4.219-1.781V15.853a.5.5,0,0,1,.514-.5h2.229a.51.51,0,0,1,.514.5V35.9c0,3.486-1.9,5.486-5.21,5.486a7.48,7.48,0,0,1-4.048-1.1L1.9,37.627a3.7,3.7,0,0,1-1.848-3.21v-20.3A3.715,3.715,0,0,1,1.9,10.91L19.47.756a3.857,3.857,0,0,1,3.7,0L40.758,10.919a3.7,3.7,0,0,1,1.848,3.21v20.3a3.727,3.727,0,0,1-1.848,3.21L23.166,47.789A3.7,3.7,0,0,1,21.318,48.285Zm14.2-20.012c0-3.8-2.572-4.81-7.972-5.524-5.467-.724-6.02-1.1-6.02-2.372,0-1.057.467-2.467,4.515-2.467,3.61,0,4.943.781,5.5,3.219a.51.51,0,0,0,.5.4h2.286a.5.5,0,0,0,.371-.162.53.53,0,0,0,.133-.391c-.352-4.2-3.143-6.153-8.782-6.153-5.02,0-8.01,2.114-8.01,5.667,0,3.848,2.981,4.915,7.791,5.391,5.763.562,6.21,1.41,6.21,2.543,0,1.962-1.581,2.8-5.286,2.8-4.658,0-5.677-1.172-6.02-3.486a.5.5,0,0,0-.5-.429H17.946a.5.5,0,0,0-.5.5c0,2.962,1.61,6.5,9.315,6.5,5.562-.01,8.763-2.21,8.763-6.039Z" transform="translate(-0.049 -0.285)" fill="#fff"/>
</svg>
