<svg xmlns="http://www.w3.org/2000/svg" width="40.001" height="40" viewBox="0 0 40.001 40">
  <path id="Icon_awesome-paint-brush" data-name="Icon awesome-paint-brush" d="M13.049,24.167c-3.134.2-5.979,1.4-7.593,5.648a1.192,1.192,0,0,1-1.14.78C3.448,30.6.764,28.434,0,27.912,0,34.345,2.963,40,10,40c5.927,0,10-3.42,10-9.39a6.769,6.769,0,0,0-.076-.713l-6.876-5.73ZM35.773,0a4.771,4.771,0,0,0-3.141,1.285C16.662,15.551,15,15.886,15,20.085a7.233,7.233,0,0,0,.682,3.023l4.986,4.155a7.189,7.189,0,0,0,1.749.237c4.852,0,7.665-3.552,16.5-20.036A8.039,8.039,0,0,0,40,3.871,4.068,4.068,0,0,0,35.773,0Z" transform="translate(0.001)" fill="#fff"/>
</svg>
