<svg xmlns="http://www.w3.org/2000/svg" width="117" height="117" viewBox="0 0 117 117">
  <g id="Group_169" data-name="Group 169" transform="translate(-872 1228) rotate(-90)">
    <circle id="Ellipse_1" data-name="Ellipse 1" cx="5" cy="5" r="5" transform="translate(1111 872)" fill="#111"/>
    <ellipse id="Ellipse_1-2" data-name="Ellipse 1" cx="5.5" cy="5" rx="5.5" ry="5" transform="translate(1132 872)" fill="#111"/>
    <ellipse id="Ellipse_1-3" data-name="Ellipse 1" cx="5.5" cy="5" rx="5.5" ry="5" transform="translate(1153 872)" fill="#111"/>
    <ellipse id="Ellipse_1-4" data-name="Ellipse 1" cx="6" cy="5" rx="6" ry="5" transform="translate(1174 872)" fill="#111"/>
    <circle id="Ellipse_1-5" data-name="Ellipse 1" cx="5" cy="5" r="5" transform="translate(1196 872)" fill="#111"/>
    <ellipse id="Ellipse_1-6" data-name="Ellipse 1" cx="5.5" cy="5" rx="5.5" ry="5" transform="translate(1217 872)" fill="#111"/>
    <ellipse id="Ellipse_1-7" data-name="Ellipse 1" cx="5" cy="5.5" rx="5" ry="5.5" transform="translate(1111 893)" fill="#111"/>
    <circle id="Ellipse_1-8" data-name="Ellipse 1" cx="5.5" cy="5.5" r="5.5" transform="translate(1132 893)" fill="#111"/>
    <circle id="Ellipse_1-9" data-name="Ellipse 1" cx="5.5" cy="5.5" r="5.5" transform="translate(1153 893)" fill="#111"/>
    <ellipse id="Ellipse_1-10" data-name="Ellipse 1" cx="6" cy="5.5" rx="6" ry="5.5" transform="translate(1174 893)" fill="#111"/>
    <ellipse id="Ellipse_1-11" data-name="Ellipse 1" cx="5" cy="5.5" rx="5" ry="5.5" transform="translate(1196 893)" fill="#111"/>
    <ellipse id="Ellipse_1-12" data-name="Ellipse 1" cx="5" cy="5.5" rx="5" ry="5.5" transform="translate(1111 914)" fill="#111"/>
    <circle id="Ellipse_1-13" data-name="Ellipse 1" cx="5.5" cy="5.5" r="5.5" transform="translate(1132 914)" fill="#111"/>
    <circle id="Ellipse_1-14" data-name="Ellipse 1" cx="5.5" cy="5.5" r="5.5" transform="translate(1153 914)" fill="#111"/>
    <ellipse id="Ellipse_1-15" data-name="Ellipse 1" cx="6" cy="5.5" rx="6" ry="5.5" transform="translate(1174 914)" fill="#111"/>
    <ellipse id="Ellipse_1-16" data-name="Ellipse 1" cx="5" cy="6" rx="5" ry="6" transform="translate(1111 935)" fill="#111"/>
    <ellipse id="Ellipse_1-17" data-name="Ellipse 1" cx="5.5" cy="6" rx="5.5" ry="6" transform="translate(1132 935)" fill="#111"/>
    <ellipse id="Ellipse_1-18" data-name="Ellipse 1" cx="5.5" cy="6" rx="5.5" ry="6" transform="translate(1153 935)" fill="#111"/>
    <circle id="Ellipse_1-19" data-name="Ellipse 1" cx="5" cy="5" r="5" transform="translate(1111 957)" fill="#111"/>
    <ellipse id="Ellipse_1-20" data-name="Ellipse 1" cx="5.5" cy="5" rx="5.5" ry="5" transform="translate(1132 957)" fill="#111"/>
    <ellipse id="Ellipse_1-21" data-name="Ellipse 1" cx="5" cy="5.5" rx="5" ry="5.5" transform="translate(1111 978)" fill="#111"/>
  </g>
</svg>
