<svg xmlns="http://www.w3.org/2000/svg" width="91" height="91" viewBox="0 0 91 91">
  <g id="Group_166" data-name="Group 166" transform="translate(1202 963) rotate(180)">
    <circle id="Ellipse_1" data-name="Ellipse 1" cx="4" cy="4" r="4" transform="translate(1111 872)" fill="#fe4900"/>
    <ellipse id="Ellipse_1-2" data-name="Ellipse 1" cx="4.5" cy="4" rx="4.5" ry="4" transform="translate(1127 872)"/>
    <circle id="Ellipse_1-3" data-name="Ellipse 1" cx="4" cy="4" r="4" transform="translate(1144 872)"/>
    <ellipse id="Ellipse_1-4" data-name="Ellipse 1" cx="4.5" cy="4" rx="4.5" ry="4" transform="translate(1160 872)"/>
    <circle id="Ellipse_1-5" data-name="Ellipse 1" cx="4" cy="4" r="4" transform="translate(1177 872)"/>
    <ellipse id="Ellipse_1-6" data-name="Ellipse 1" cx="4.5" cy="4" rx="4.5" ry="4" transform="translate(1193 872)"/>
    <ellipse id="Ellipse_1-7" data-name="Ellipse 1" cx="4" cy="4.5" rx="4" ry="4.5" transform="translate(1111 888)"/>
    <circle id="Ellipse_1-8" data-name="Ellipse 1" cx="4.5" cy="4.5" r="4.5" transform="translate(1127 888)"/>
    <ellipse id="Ellipse_1-9" data-name="Ellipse 1" cx="4" cy="4.5" rx="4" ry="4.5" transform="translate(1144 888)"/>
    <circle id="Ellipse_1-10" data-name="Ellipse 1" cx="4.5" cy="4.5" r="4.5" transform="translate(1160 888)"/>
    <ellipse id="Ellipse_1-11" data-name="Ellipse 1" cx="4" cy="4.5" rx="4" ry="4.5" transform="translate(1177 888)"/>
    <circle id="Ellipse_1-12" data-name="Ellipse 1" cx="4" cy="4" r="4" transform="translate(1111 905)"/>
    <ellipse id="Ellipse_1-13" data-name="Ellipse 1" cx="4.5" cy="4" rx="4.5" ry="4" transform="translate(1127 905)"/>
    <circle id="Ellipse_1-14" data-name="Ellipse 1" cx="4" cy="4" r="4" transform="translate(1144 905)"/>
    <ellipse id="Ellipse_1-15" data-name="Ellipse 1" cx="4.5" cy="4" rx="4.5" ry="4" transform="translate(1160 905)"/>
    <ellipse id="Ellipse_1-16" data-name="Ellipse 1" cx="4" cy="4.5" rx="4" ry="4.5" transform="translate(1111 921)"/>
    <circle id="Ellipse_1-17" data-name="Ellipse 1" cx="4.5" cy="4.5" r="4.5" transform="translate(1127 921)"/>
    <ellipse id="Ellipse_1-18" data-name="Ellipse 1" cx="4" cy="4.5" rx="4" ry="4.5" transform="translate(1144 921)"/>
    <circle id="Ellipse_1-19" data-name="Ellipse 1" cx="4" cy="4" r="4" transform="translate(1111 938)"/>
    <ellipse id="Ellipse_1-20" data-name="Ellipse 1" cx="4.5" cy="4" rx="4.5" ry="4" transform="translate(1127 938)"/>
    <ellipse id="Ellipse_1-21" data-name="Ellipse 1" cx="4" cy="4.5" rx="4" ry="4.5" transform="translate(1111 954)"/>
  </g>
</svg>
